<?xml version="1.0" encoding="utf-8"?>
<!-- Generator: Adobe Illustrator 28.1.0, SVG Export Plug-In . SVG Version: 6.00 Build 0)  -->
<svg version="1.1" id="Livello_1" xmlns="http://www.w3.org/2000/svg" xmlns:xlink="http://www.w3.org/1999/xlink" x="0px" y="0px"
	 viewBox="0 0 519.9 55.3" style="enable-background:new 0 0 519.9 55.3;" xml:space="preserve">
<style type="text/css">
	.st0{fill:#F6F6F6;}
</style>
<g>
	<path class="st0" d="M44.6,26.2c-1.4-1.1-3-2-4.7-2.6c-1.7-0.7-3.5-1.2-5.4-1.6c-1.9-0.4-3.7-0.8-5.4-1.1c-1.7-0.3-3.3-0.7-4.7-1.1
		s-2.5-0.9-3.3-1.4c-0.8-0.6-1.2-1.3-1.2-2.2c0-0.6,0.2-1.1,0.7-1.6c0.5-0.5,1.2-0.9,2.2-1.2c1-0.3,2.2-0.4,3.6-0.4
		c1.5,0,2.8,0.2,3.7,0.7c0.9,0.5,1.6,1.1,2.1,1.9c0.4,0.8,0.7,1.6,0.7,2.5v0.3h14.9v-0.9c0-2.6-0.7-4.9-1.8-6.9
		c-1.2-1.9-2.7-3.5-4.8-4.8c-2-1.2-4.3-2.2-7-2.8c-2.6-0.6-5.4-0.9-8.4-0.9c-2.9,0-5.7,0.3-8.4,0.9c-2.7,0.6-5.1,1.5-7.1,2.7
		c-2.1,1.2-3.7,2.9-4.9,4.9c-1.2,2-1.8,4.5-1.8,7.4c0,2.4,0.4,4.5,1.2,6.2c0.8,1.7,1.9,3.1,3.3,4.3c1.4,1.1,3,2.1,4.7,2.8
		c1.7,0.7,3.5,1.3,5.4,1.8c1.9,0.5,3.7,0.9,5.4,1.2c1.7,0.3,3.3,0.7,4.7,1.1c1.4,0.4,2.5,0.8,3.3,1.4c0.8,0.5,1.2,1.2,1.2,2.2
		c0,0.6-0.1,1.1-0.4,1.6c-0.3,0.4-0.7,0.7-1.2,1c-0.5,0.2-1.1,0.4-1.7,0.5c-0.6,0.1-1.2,0.2-1.9,0.2c-0.7,0-1.3,0-1.8,0
		c-1.5,0-2.9-0.1-4.1-0.4c-1.2-0.3-2.2-0.8-2.8-1.6c-0.7-0.8-1-1.9-1-3.3c0-0.1,0-0.3,0-0.5c0-0.2,0-0.3,0.1-0.5H2.8
		c0,0.2-0.1,0.4-0.1,0.5c0,0.2,0,0.3,0,0.4c0,3.3,0.6,6.1,1.9,8.3C6,47,7.7,48.7,9.9,50c2.2,1.2,4.8,2.1,7.8,2.6
		c3,0.5,6.1,0.8,9.6,0.8c4.2,0,7.9-0.6,11.2-1.8c3.3-1.2,5.9-3,7.8-5.6c1.9-2.5,2.9-5.9,2.9-10c0-2.3-0.4-4.3-1.2-5.8
		C47.1,28.6,46,27.2,44.6,26.2z"/>
	<path class="st0" d="M87.1,32.3c0,1.9-0.4,3.5-1,4.9c-0.7,1.4-1.7,2.4-3.1,3.1c-1.4,0.7-3.1,1.1-5.2,1.1c-2.2,0-3.9-0.5-5.3-1.4
		c-1.3-1-2.3-2.3-3-4c-0.7-1.7-1-3.7-1-6v-4.6c0-2.3,0.3-4.3,0.9-6c0.6-1.7,1.6-3.1,3-4c1.4-1,3.2-1.4,5.4-1.4
		c1.9,0,3.5,0.4,4.8,1.2c1.3,0.8,2.2,1.9,2.9,3.3c0.7,1.4,1,3.1,1,5h15.2c0-4.6-1-8.5-3-11.7c-2-3.2-4.8-5.6-8.3-7.2
		c-3.6-1.6-7.8-2.4-12.6-2.4c-8.5,0-14.9,2.2-19.2,6.5c-4.4,4.3-6.5,10.7-6.5,19.2c0,5.6,1,10.4,2.9,14.2c2,3.8,4.8,6.7,8.7,8.6
		c3.8,1.9,8.6,2.9,14.2,2.9c5.1,0,9.4-0.8,12.9-2.4c3.6-1.6,6.3-4,8.2-7.1c1.9-3.1,2.8-7,2.8-11.5H87.1z"/>
	<path class="st0" d="M119.8,2.8l-18.1,49.6H118l2.1-7h17.4l2.1,7h16.9L138.4,2.8H119.8z M123.5,34.3l2.4-7.9c0.3-1.1,0.7-2.2,1-3.4
		c0.3-1.2,0.7-2.3,1-3.4c0.3-1.1,0.6-2.1,0.8-3h0.6c0.2,0.7,0.4,1.5,0.6,2.3c0.2,0.9,0.5,1.8,0.7,2.7c0.2,0.9,0.5,1.8,0.7,2.6
		c0.2,0.8,0.5,1.5,0.7,2.1l2.4,7.9H123.5z"/>
	<path class="st0" d="M198.2,26.2c-1.4-1.1-3-2-4.7-2.6c-1.7-0.7-3.5-1.2-5.4-1.6c-1.9-0.4-3.7-0.8-5.4-1.1
		c-1.7-0.3-3.3-0.7-4.7-1.1c-1.4-0.4-2.5-0.9-3.3-1.4c-0.8-0.6-1.2-1.3-1.2-2.2c0-0.6,0.2-1.1,0.7-1.6c0.5-0.5,1.2-0.9,2.2-1.2
		c1-0.3,2.2-0.4,3.6-0.4c1.5,0,2.8,0.2,3.7,0.7c0.9,0.5,1.6,1.1,2.1,1.9c0.4,0.8,0.7,1.6,0.7,2.5v0.3h14.9v-0.9
		c0-2.6-0.6-4.9-1.8-6.9c-1.2-1.9-2.7-3.5-4.8-4.8c-2-1.2-4.3-2.2-7-2.8c-2.6-0.6-5.4-0.9-8.4-0.9c-2.9,0-5.7,0.3-8.4,0.9
		c-2.7,0.6-5.1,1.5-7.1,2.7c-2.1,1.2-3.7,2.9-4.9,4.9c-1.2,2-1.8,4.5-1.8,7.4c0,2.4,0.4,4.5,1.2,6.2c0.8,1.7,1.9,3.1,3.3,4.3
		c1.4,1.1,3,2.1,4.7,2.8c1.7,0.7,3.5,1.3,5.4,1.8c1.9,0.5,3.7,0.9,5.4,1.2c1.7,0.3,3.3,0.7,4.7,1.1c1.4,0.4,2.5,0.8,3.3,1.4
		c0.8,0.5,1.2,1.2,1.2,2.2c0,0.6-0.1,1.1-0.4,1.6c-0.3,0.4-0.7,0.7-1.2,1c-0.5,0.2-1.1,0.4-1.7,0.5c-0.6,0.1-1.2,0.2-1.9,0.2
		c-0.7,0-1.3,0-1.8,0c-1.5,0-2.9-0.1-4.1-0.4c-1.2-0.3-2.2-0.8-2.9-1.6c-0.7-0.8-1-1.9-1-3.3c0-0.1,0-0.3,0-0.5c0-0.2,0-0.3,0.1-0.5
		h-15.1c-0.1,0.2-0.1,0.4-0.1,0.5c0,0.2,0,0.3,0,0.4c0,3.3,0.6,6.1,1.9,8.3c1.3,2.2,3,3.9,5.3,5.1c2.2,1.2,4.8,2.1,7.8,2.6
		c3,0.5,6.1,0.8,9.6,0.8c4.2,0,7.9-0.6,11.2-1.8c3.3-1.2,5.9-3,7.8-5.6c1.9-2.5,2.8-5.9,2.8-10c0-2.3-0.4-4.3-1.2-5.8
		C200.7,28.6,199.6,27.2,198.2,26.2z"/>
	<path class="st0" d="M247.7,26.2c-1.4-1.1-3-2-4.7-2.6c-1.7-0.7-3.5-1.2-5.4-1.6c-1.9-0.4-3.7-0.8-5.4-1.1
		c-1.7-0.3-3.3-0.7-4.7-1.1c-1.4-0.4-2.5-0.9-3.3-1.4c-0.8-0.6-1.2-1.3-1.2-2.2c0-0.6,0.2-1.1,0.7-1.6c0.5-0.5,1.2-0.9,2.2-1.2
		c1-0.3,2.2-0.4,3.6-0.4c1.5,0,2.8,0.2,3.7,0.7c0.9,0.5,1.6,1.1,2.1,1.9c0.4,0.8,0.7,1.6,0.7,2.5v0.3h14.9v-0.9
		c-0.1-2.6-0.7-4.9-1.8-6.9c-1.2-1.9-2.7-3.5-4.8-4.8c-2-1.2-4.3-2.2-7-2.8c-2.6-0.6-5.4-0.9-8.4-0.9c-2.9,0-5.7,0.3-8.4,0.9
		c-2.7,0.6-5.1,1.5-7.1,2.7c-2.1,1.2-3.7,2.9-4.9,4.9c-1.2,2-1.8,4.5-1.8,7.4c0,2.4,0.4,4.5,1.2,6.2c0.8,1.7,1.9,3.1,3.3,4.3
		c1.4,1.1,3,2.1,4.7,2.8c1.7,0.7,3.5,1.3,5.4,1.8c1.9,0.5,3.7,0.9,5.4,1.2c1.7,0.3,3.3,0.7,4.7,1.1c1.4,0.4,2.5,0.8,3.3,1.4
		c0.8,0.5,1.2,1.2,1.2,2.2c0,0.6-0.1,1.1-0.4,1.6c-0.3,0.4-0.7,0.7-1.2,1c-0.5,0.2-1.1,0.4-1.7,0.5c-0.6,0.1-1.2,0.2-1.9,0.2
		c-0.7,0-1.3,0-1.8,0c-1.5,0-2.9-0.1-4.1-0.4c-1.2-0.3-2.2-0.8-2.9-1.6c-0.7-0.8-1-1.9-1-3.3c0-0.1,0-0.3,0-0.5c0-0.2,0-0.3,0.1-0.5
		h-15.1c-0.1,0.2-0.1,0.4-0.1,0.5c0,0.2,0,0.3,0,0.4c0,3.3,0.6,6.1,1.9,8.3c1.3,2.2,3,3.9,5.3,5.1c2.2,1.2,4.8,2.1,7.8,2.6
		c3,0.5,6.1,0.8,9.6,0.8c4.2,0,7.9-0.6,11.2-1.8c3.3-1.2,5.9-3,7.8-5.6c1.9-2.5,2.9-5.9,2.9-10c0-2.3-0.4-4.3-1.2-5.8
		C250.2,28.6,249.1,27.2,247.7,26.2z"/>
	<polygon class="st0" points="273.5,33 296.6,33 296.6,21.6 273.5,21.6 273.5,14.7 300.5,14.7 300.5,2.8 257.5,2.8 257.5,52.5 
		301,52.5 301,40.6 273.5,40.6 	"/>
	<polygon class="st0" points="322.5,2.8 306.6,2.8 306.6,52.5 348,52.5 348,39.8 322.5,39.8 	"/>
	<polygon class="st0" points="369.1,2.8 353.2,2.8 353.2,52.5 394.6,52.5 394.6,39.8 369.1,39.8 	"/>
	<path class="st0" d="M416.3,2.8l-18.1,49.6h16.3l2.1-7H434l2.1,7H453L434.9,2.8H416.3z M420,34.3l2.4-7.9c0.3-1.1,0.7-2.2,1-3.4
		c0.3-1.2,0.7-2.3,1-3.4c0.3-1.1,0.6-2.1,0.8-3h0.6c0.2,0.7,0.4,1.5,0.7,2.3c0.2,0.9,0.5,1.8,0.7,2.7c0.2,0.9,0.5,1.8,0.7,2.6
		c0.2,0.8,0.5,1.5,0.7,2.1l2.4,7.9H420z"/>
	<polygon class="st0" points="447.4,15.5 463.7,15.5 463.7,52.5 479.6,52.5 479.6,15.5 495.9,15.5 495.9,2.8 447.4,2.8 	"/>
	<rect x="501.2" y="2.8" class="st0" width="16" height="49.6"/>
</g>
</svg>
