<?xml version="1.0" encoding="UTF-8" standalone="no"?>
<svg
   viewBox="14 126 189 20"
   version="1.1"
   xmlns="http://www.w3.org/2000/svg"><g
       id="g8"
       fill="#F6F6F6"
       transform="matrix(0.27301971,0,0,0.27301971,57.469313,128.64329)">
	<path
   d="m 44.6,26.2 c -1.4,-1.1 -3,-2 -4.7,-2.6 -1.7,-0.7 -3.5,-1.2 -5.4,-1.6 -1.9,-0.4 -3.7,-0.8 -5.4,-1.1 -1.7,-0.3 -3.3,-0.7 -4.7,-1.1 -1.4,-0.4 -2.5,-0.9 -3.3,-1.4 -0.8,-0.6 -1.2,-1.3 -1.2,-2.2 0,-0.6 0.2,-1.1 0.7,-1.6 0.5,-0.5 1.2,-0.9 2.2,-1.2 1,-0.3 2.2,-0.4 3.6,-0.4 1.5,0 2.8,0.2 3.7,0.7 0.9,0.5 1.6,1.1 2.1,1.9 0.4,0.8 0.7,1.6 0.7,2.5 v 0.3 H 47.8 V 17.5 C 47.8,14.9 47.1,12.6 46,10.6 44.8,8.7 43.3,7.1 41.2,5.8 39.2,4.6 36.9,3.6 34.2,3 31.6,2.4 28.8,2.1 25.8,2.1 22.9,2.1 20.1,2.4 17.4,3 14.7,3.6 12.3,4.5 10.3,5.7 8.2,6.9 6.6,8.6 5.4,10.6 c -1.2,2 -1.8,4.5 -1.8,7.4 0,2.4 0.4,4.5 1.2,6.2 0.8,1.7 1.9,3.1 3.3,4.3 1.4,1.1 3,2.1 4.7,2.8 1.7,0.7 3.5,1.3 5.4,1.8 1.9,0.5 3.7,0.9 5.4,1.2 1.7,0.3 3.3,0.7 4.7,1.1 1.4,0.4 2.5,0.8 3.3,1.4 0.8,0.5 1.2,1.2 1.2,2.2 0,0.6 -0.1,1.1 -0.4,1.6 -0.3,0.4 -0.7,0.7 -1.2,1 -0.5,0.2 -1.1,0.4 -1.7,0.5 -0.6,0.1 -1.2,0.2 -1.9,0.2 -0.7,0 -1.3,0 -1.8,0 -1.5,0 -2.9,-0.1 -4.1,-0.4 -1.2,-0.3 -2.2,-0.8 -2.8,-1.6 -0.7,-0.8 -1,-1.9 -1,-3.3 0,-0.1 0,-0.3 0,-0.5 0,-0.2 0,-0.3 0.1,-0.5 H 2.8 c 0,0.2 -0.1,0.4 -0.1,0.5 0,0.2 0,0.3 0,0.4 0,3.3 0.6,6.1 1.9,8.3 1.4,1.8 3.1,3.5 5.3,4.8 2.2,1.2 4.8,2.1 7.8,2.6 3,0.5 6.1,0.8 9.6,0.8 4.2,0 7.9,-0.6 11.2,-1.8 3.3,-1.2 5.9,-3 7.8,-5.6 1.9,-2.5 2.9,-5.9 2.9,-10 0,-2.3 -0.4,-4.3 -1.2,-5.8 -0.9,-1.6 -2,-3 -3.4,-4 z" />
	<path
   d="m 87.1,32.3 c 0,1.9 -0.4,3.5 -1,4.9 -0.7,1.4 -1.7,2.4 -3.1,3.1 -1.4,0.7 -3.1,1.1 -5.2,1.1 -2.2,0 -3.9,-0.5 -5.3,-1.4 -1.3,-1 -2.3,-2.3 -3,-4 -0.7,-1.7 -1,-3.7 -1,-6 v -4.6 c 0,-2.3 0.3,-4.3 0.9,-6 0.6,-1.7 1.6,-3.1 3,-4 1.4,-1 3.2,-1.4 5.4,-1.4 1.9,0 3.5,0.4 4.8,1.2 1.3,0.8 2.2,1.9 2.9,3.3 0.7,1.4 1,3.1 1,5 h 15.2 c 0,-4.6 -1,-8.5 -3,-11.7 C 96.7,8.6 93.9,6.2 90.4,4.6 86.8,3 82.6,2.2 77.8,2.2 69.3,2.2 62.9,4.4 58.6,8.7 54.2,13 52.1,19.4 52.1,27.9 c 0,5.6 1,10.4 2.9,14.2 2,3.8 4.8,6.7 8.7,8.6 3.8,1.9 8.6,2.9 14.2,2.9 5.1,0 9.4,-0.8 12.9,-2.4 3.6,-1.6 6.3,-4 8.2,-7.1 1.9,-3.1 2.8,-7 2.8,-11.5 H 87.1 Z" />
	<path
   d="M 119.8,2.8 101.7,52.4 H 118 l 2.1,-7 h 17.4 l 2.1,7 h 16.9 L 138.4,2.8 Z m 3.7,31.5 2.4,-7.9 c 0.3,-1.1 0.7,-2.2 1,-3.4 0.3,-1.2 0.7,-2.3 1,-3.4 0.3,-1.1 0.6,-2.1 0.8,-3 h 0.6 c 0.2,0.7 0.4,1.5 0.6,2.3 0.2,0.9 0.5,1.8 0.7,2.7 0.2,0.9 0.5,1.8 0.7,2.6 0.2,0.8 0.5,1.5 0.7,2.1 l 2.4,7.9 h -10.9 z" />
	<path
   d="m 198.2,26.2 c -1.4,-1.1 -3,-2 -4.7,-2.6 -1.7,-0.7 -3.5,-1.2 -5.4,-1.6 -1.9,-0.4 -3.7,-0.8 -5.4,-1.1 -1.7,-0.3 -3.3,-0.7 -4.7,-1.1 -1.4,-0.4 -2.5,-0.9 -3.3,-1.4 -0.8,-0.6 -1.2,-1.3 -1.2,-2.2 0,-0.6 0.2,-1.1 0.7,-1.6 0.5,-0.5 1.2,-0.9 2.2,-1.2 1,-0.3 2.2,-0.4 3.6,-0.4 1.5,0 2.8,0.2 3.7,0.7 0.9,0.5 1.6,1.1 2.1,1.9 0.4,0.8 0.7,1.6 0.7,2.5 v 0.3 h 14.9 v -0.9 c 0,-2.6 -0.6,-4.9 -1.8,-6.9 -1.2,-1.9 -2.7,-3.5 -4.8,-4.8 -2,-1.2 -4.3,-2.2 -7,-2.8 -2.6,-0.6 -5.4,-0.9 -8.4,-0.9 -2.9,0 -5.7,0.3 -8.4,0.9 -2.7,0.6 -5.1,1.5 -7.1,2.7 -2.1,1.2 -3.7,2.9 -4.9,4.9 -1.2,2 -1.8,4.5 -1.8,7.4 0,2.4 0.4,4.5 1.2,6.2 0.8,1.7 1.9,3.1 3.3,4.3 1.4,1.1 3,2.1 4.7,2.8 1.7,0.7 3.5,1.3 5.4,1.8 1.9,0.5 3.7,0.9 5.4,1.2 1.7,0.3 3.3,0.7 4.7,1.1 1.4,0.4 2.5,0.8 3.3,1.4 0.8,0.5 1.2,1.2 1.2,2.2 0,0.6 -0.1,1.1 -0.4,1.6 -0.3,0.4 -0.7,0.7 -1.2,1 -0.5,0.2 -1.1,0.4 -1.7,0.5 -0.6,0.1 -1.2,0.2 -1.9,0.2 -0.7,0 -1.3,0 -1.8,0 -1.5,0 -2.9,-0.1 -4.1,-0.4 -1.2,-0.3 -2.2,-0.8 -2.9,-1.6 -0.7,-0.8 -1,-1.9 -1,-3.3 0,-0.1 0,-0.3 0,-0.5 0,-0.2 0,-0.3 0.1,-0.5 h -15.1 c -0.1,0.2 -0.1,0.4 -0.1,0.5 0,0.2 0,0.3 0,0.4 0,3.3 0.6,6.1 1.9,8.3 1.3,2.2 3,3.9 5.3,5.1 2.2,1.2 4.8,2.1 7.8,2.6 3,0.5 6.1,0.8 9.6,0.8 4.2,0 7.9,-0.6 11.2,-1.8 3.3,-1.2 5.9,-3 7.8,-5.6 1.9,-2.5 2.8,-5.9 2.8,-10 0,-2.3 -0.4,-4.3 -1.2,-5.8 -0.8,-1.9 -1.9,-3.3 -3.3,-4.3 z" />
	<path
   d="m 247.7,26.2 c -1.4,-1.1 -3,-2 -4.7,-2.6 -1.7,-0.7 -3.5,-1.2 -5.4,-1.6 -1.9,-0.4 -3.7,-0.8 -5.4,-1.1 -1.7,-0.3 -3.3,-0.7 -4.7,-1.1 -1.4,-0.4 -2.5,-0.9 -3.3,-1.4 -0.8,-0.6 -1.2,-1.3 -1.2,-2.2 0,-0.6 0.2,-1.1 0.7,-1.6 0.5,-0.5 1.2,-0.9 2.2,-1.2 1,-0.3 2.2,-0.4 3.6,-0.4 1.5,0 2.8,0.2 3.7,0.7 0.9,0.5 1.6,1.1 2.1,1.9 0.4,0.8 0.7,1.6 0.7,2.5 v 0.3 h 14.9 v -0.9 c -0.1,-2.6 -0.7,-4.9 -1.8,-6.9 -1.2,-1.9 -2.7,-3.5 -4.8,-4.8 -2,-1.2 -4.3,-2.2 -7,-2.8 -2.6,-0.6 -5.4,-0.9 -8.4,-0.9 -2.9,0 -5.7,0.3 -8.4,0.9 -2.7,0.6 -5.1,1.5 -7.1,2.7 -2.1,1.2 -3.7,2.9 -4.9,4.9 -1.2,2 -1.8,4.5 -1.8,7.4 0,2.4 0.4,4.5 1.2,6.2 0.8,1.7 1.9,3.1 3.3,4.3 1.4,1.1 3,2.1 4.7,2.8 1.7,0.7 3.5,1.3 5.4,1.8 1.9,0.5 3.7,0.9 5.4,1.2 1.7,0.3 3.3,0.7 4.7,1.1 1.4,0.4 2.5,0.8 3.3,1.4 0.8,0.5 1.2,1.2 1.2,2.2 0,0.6 -0.1,1.1 -0.4,1.6 -0.3,0.4 -0.7,0.7 -1.2,1 -0.5,0.2 -1.1,0.4 -1.7,0.5 -0.6,0.1 -1.2,0.2 -1.9,0.2 -0.7,0 -1.3,0 -1.8,0 -1.5,0 -2.9,-0.1 -4.1,-0.4 -1.2,-0.3 -2.2,-0.8 -2.9,-1.6 -0.7,-0.8 -1,-1.9 -1,-3.3 0,-0.1 0,-0.3 0,-0.5 0,-0.2 0,-0.3 0.1,-0.5 h -15.1 c -0.1,0.2 -0.1,0.4 -0.1,0.5 0,0.2 0,0.3 0,0.4 0,3.3 0.6,6.1 1.9,8.3 1.3,2.2 3,3.9 5.3,5.1 2.2,1.2 4.8,2.1 7.8,2.6 3,0.5 6.1,0.8 9.6,0.8 4.2,0 7.9,-0.6 11.2,-1.8 3.3,-1.2 5.9,-3 7.8,-5.6 1.9,-2.5 2.9,-5.9 2.9,-10 0,-2.3 -0.4,-4.3 -1.2,-5.8 -0.9,-1.9 -2,-3.3 -3.4,-4.3 z" />
	<polygon
   points="257.5,52.5 301,52.5 301,40.6 273.5,40.6 273.5,33 296.6,33 296.6,21.6 273.5,21.6 273.5,14.7 300.5,14.7 300.5,2.8 257.5,2.8 " />
	<polygon
   points="306.6,52.5 348,52.5 348,39.8 322.5,39.8 322.5,2.8 306.6,2.8 " />
	<polygon
   points="353.2,52.5 394.6,52.5 394.6,39.8 369.1,39.8 369.1,2.8 353.2,2.8 " />
	<path
   d="m 416.3,2.8 -18.1,49.6 h 16.3 l 2.1,-7 H 434 l 2.1,7 H 453 L 434.9,2.8 Z m 3.7,31.5 2.4,-7.9 c 0.3,-1.1 0.7,-2.2 1,-3.4 0.3,-1.2 0.7,-2.3 1,-3.4 0.3,-1.1 0.6,-2.1 0.8,-3 h 0.6 c 0.2,0.7 0.4,1.5 0.7,2.3 0.2,0.9 0.5,1.8 0.7,2.7 0.2,0.9 0.5,1.8 0.7,2.6 0.2,0.8 0.5,1.5 0.7,2.1 l 2.4,7.9 h -11 z" />
	<polygon
   points="447.4,15.5 463.7,15.5 463.7,52.5 479.6,52.5 479.6,15.5 495.9,15.5 495.9,2.8 447.4,2.8 " />
	<rect
   x="501.20001"
   y="2.8"
   width="16"
   height="49.599998" />
</g><g
       id="g1"
       fill="#F6F6F6"
       transform="matrix(0.27418509,0,0,0.27418509,16.436783,128.586)">
	<path
   d="M 50.112967,2.3000121 V 40.600012 h 24 c 0,-0.2 0,-0.4 0,-0.6 0.8,7.3 6.9,13 14.5,13 8,0 14.500003,-6.5 14.500003,-14.5 0,-8 -6.500003,-14.5 -14.500003,-14.5 -4.7,0 -8.9,2.2 -11.6,5.7 3.9,-6.8 11.2,-11.4 19.5,-11.4 12.400003,0 22.500003,10 22.600003,22.4 h 7.8 V 2.3000121 Z" />
</g></svg>
