<?xml version="1.0" encoding="utf-8"?>
<!-- Generator: Adobe Illustrator 27.1.0, SVG Export Plug-In . SVG Version: 6.00 Build 0)  -->
<svg version="1.1" id="Livello_1" xmlns="http://www.w3.org/2000/svg" xmlns:xlink="http://www.w3.org/1999/xlink" x="0px" y="0px"
	 width="178px" height="57px" viewBox="0 0 178 57" style="enable-background:new 0 0 178 57;" xml:space="preserve">
<style type="text/css">
	.st0{fill:#093051;}
	.st1{fill:#A51321;}
</style>
<g>
	<path class="st0" d="M30.5,23c-2-2.7-5.2-4.1-9-4.1c0,0-1.6,0-3.1,0c0.8-2.9,2.7-10,2.7-10h-1.9h-8.7L0.2,47h14.5
		c7.6,0,15.4-6.1,17.4-13.7C33.2,29.4,32.6,25.7,30.5,23z M23.2,27.1L20.3,38c-0.6,2.1-2.8,3.9-5,3.9c0,0-1.6,0-3.1,0
		c0.8-3,4.3-16.2,4.8-18c1.4,0,3.9,0,3.9,0c0.8,0,1.5,0.3,1.9,0.8c0.3,0.4,0.4,0.9,0.4,1.4C23.3,26.5,23.3,26.8,23.2,27.1z"/>
	<polygon class="st0" points="72,8.9 61.8,47 72.4,47 82.6,8.9 	"/>
	<polygon class="st0" points="164.5,18.9 156.9,47 167.6,47 173.6,24.5 173.6,24.5 175.1,18.9 	"/>
	<g>
		<path class="st1" d="M93.3,26.9c0.7-2.7,3.5-4.8,6.1-4.8c0.8,0,1.6,0.2,2.1,0.6l1.2-1c1.1-0.9,2.3-1.7,3.6-2.3
			c-1.9-1.1-4.1-1.7-6.6-1.7c-8.1,0-16.2,6.3-18.4,14.4c-0.6,2.3-0.7,4.5-0.3,6.6l11.4-9L93.3,26.9z"/>
		<path class="st1" d="M107.7,28.3l-6.2,3.8L99.7,39c-0.7,2.7-3.5,4.8-6.1,4.8c-2.6,0-4.2-2-3.6-4.6l-6.8,4.2c0,0.1,0.1,0.1,0.1,0.2
			c2.3,3,5.8,4.6,10,4.6c8.1,0,16.2-6.3,18.4-14.4c0.7-2.6,0.7-5.2,0-7.5C110.5,26.7,109.2,27.4,107.7,28.3L107.7,28.3z"/>
	</g>
	<path class="st0" d="M150.5,23.9h9.7l1.4-5.1h-9.7l2.7-10l-13.3,10h-9.7l2.7-10l-13.3,10h-6.1c-3.8,0-7.7,1.5-11.1,4.1L73.8,47
		l33.1-20c3.2-2,5.8-3,8-3h4.8l-2.3,8.6c-1,3.9-0.5,7.6,1.7,10.3c2,2.7,5.2,4.1,9,4.1h5.8l1.4-5.1h-6.6c-0.8,0-1.5-0.3-1.9-0.8
		c-0.4-0.6-0.6-1.4-0.3-2.3l4-14.8h9.7l-2.3,8.6c-1,3.9-0.5,7.6,1.7,10.3c2,2.7,5.2,4.1,9,4.1h5.8l1.4-5.1h-6.6
		c-0.8,0-1.5-0.3-1.9-0.8c-0.4-0.6-0.6-1.4-0.3-2.3L150.5,23.9z"/>
	<polygon class="st0" points="167.2,8.9 165.7,14.5 176.3,14.5 177.8,8.9 	"/>
	<path class="st0" d="M44.5,34.7h17.7c2-6.6-0.1-10.3-1.8-12.2c-2-2.3-5.1-3.6-8.5-3.6c-7.6,0-15.4,6.1-17.4,13.7
		c-1,3.9-0.5,7.6,1.7,10.3c2,2.7,5.2,4.1,9,4.1h13.8l1.4-5.1H45.6c-0.8,0-1.5-0.3-1.9-0.8c-0.3-0.4-0.4-0.9-0.4-1.4
		c0-0.3,0-0.6,0.1-0.9L44.5,34.7z M46.3,27.9c0.5-1.9,2.5-3.5,4.4-3.5c1.9,0,3.1,1.6,2.6,3.5l-0.7,2.6h-7L46.3,27.9z"/>
</g>
</svg>
