<svg width="128" height="31" viewBox="0 0 128 31" xmlns="http://www.w3.org/2000/svg"><path d="M78.181 20.923c-2.217 5.794-7.829 9.907-14.402 9.907-6.573 0-12.185-4.113-14.403-9.907v8.894h-6.172L30.86 12.329v17.488H0V1.013h21.602v6.172H6.172v5.144h15.43V18.5H6.173v5.145h18.516V1.013h6.172l12.344 17.488V1.013h6.171v8.894C51.594 4.113 57.206 0 63.779 0c4.259 0 8.114 1.727 10.904 4.519l-4.362 4.338a9.233 9.233 0 0 0-6.542-2.705 9.264 9.264 0 1 0 0 18.526 9.268 9.268 0 0 0 8.737-6.177h-8.734v-6.172h14.399V1.013h21.603v6.172H84.353v5.144h15.43V18.5H84.354v5.145h18.516V1.013h6.172v22.632h18.506l.011 6.172H78.181v-8.894Z" fill="currentColor" fill-rule="evenodd"/></svg>
