<svg enable-background="new 0 0 595 66.7" viewBox="0 0 595 66.7" xmlns="http://www.w3.org/2000/svg"><g fill="#de0a1d"><path d="m28.5 66.4c-1.6-.8-3.1-1.8-4.5-2.9-13.3-10.4-15.6-29.6-5.2-42.9-11.9 6.5-16.2 21.3-9.8 33.1 4 7.3 11.3 12 19.5 12.7z"/><path d="m4.3 51c-.3-1.8-.5-3.5-.6-5.3-.3-16.8 13.1-30.7 30-31-12.5-5.2-26.7.8-31.9 13.2-3.1 7.6-2.2 16.3 2.5 23.1z"/><path d="m50.8 5.6c7 4.3 11.4 11.9 11.6 20.1.4 13.5-10.2 24.7-23.7 25.1 15.3-7.2 21.9-25.3 14.8-40.6-.8-1.6-1.7-3.2-2.7-4.6z"/><path d="m22.9 49.2c15.1 7.4 33.4 1.1 40.8-14 .8-1.6 1.4-3.3 1.9-5 1.1 8.2-2.1 16.3-8.3 21.6-10.3 8.8-25.7 7.6-34.4-2.6z"/><path d="m55.7 57.2c-1.7.7-3.4 1.3-5.1 1.7-16.4 3.7-32.8-6.6-36.6-23-2.4 13.2 6.4 26 19.6 28.4 8.1 1.5 16.4-1.2 22.1-7.1z"/><path d="m49.8 39.4c4.1-16.3-5.8-32.9-22.2-37-1.7-.4-3.5-.7-5.3-.8 7.8-2.7 16.4-1.4 22.9 3.6 10.8 8.2 12.8 23.5 4.6 34.2z"/><path d="m1 22.5c1.2-1.4 2.4-2.6 3.8-3.8 12.9-10.8 32.1-9.1 43 3.8-3.9-12.9-17.5-20.3-30.4-16.4-7.9 2.3-14 8.5-16.4 16.4z"/></g><path d="m337.8 0h-11.1l-24.3 66.7h10.6l7.3-20h23.8l7.3 20h10.6zm-13.8 36.7 8.2-22.6 8.2 22.6z" fill="#949494"/><path d="m105.8 0h10v66.7h-10z" fill="#010101"/><path d="m388.7 0h-36.7v10h13.4v56.7h10v-56.7h13.3z" fill="#949494"/><path d="m392 0h10v66.7h-10z" fill="#949494"/><path d="m222.4 0h-10v66.7h10z" fill="#010101"/><path d="m143.3 38.3c10.6 0 19.2-8.6 19.2-19.2 0-5.3-2.1-10.1-5.6-13.6s-8.3-5.6-13.6-5.6h-24.2v66.7h10v-25.8l20.6 25.9h12.8l-22.5-28.3h3.3zm-14.2-28.3h14.4c5.1.1 9.1 4.3 8.9 9.4-.1 5.1-4.4 9.1-9.4 8.9h-13.9z" fill="#010101"/><path d="m209.1 46.5c-.3-5.9-3.3-11.3-8.1-14.7 7-8 6.2-20.1-1.8-27.1-3.2-2.8-7.3-4.5-11.6-4.7h-21.8v66.7h25.2c10.5-.6 18.7-9.6 18.1-20.2zm-33.3-36.5h10.8c5.1 0 9.2 4.1 9.2 9.2s-4.1 9.2-9.2 9.2h-10.8c0-.1 0-18.4 0-18.4zm14.1 46.6h-14.2v-18.2h14.2c5 0 9.1 4.1 9.1 9.1s-4 9.1-9.1 9.1z" fill="#010101"/><path d="m284.1 0-21.7 52.1-21.6-52.1h-15v66.7h10v-52.7l21.6 52.2h10l21.7-52.2v52.7h10v-66.7z" fill="#949494"/><path d="m438.7 66.7c-18.4 0-33.3-14.9-33.3-33.3s14.9-33.4 33.3-33.4v10c-12.9 0-23.3 10.5-23.3 23.3s10.5 23.3 23.3 23.3z" fill="#949494"/><path d="m102.4 0v10h-23.3v20h23.3v10h-23.3v26.7h-10v-66.7z" fill="#010101"/><path d="m469.9 18.5v-18.1h6.1c1.9 0 3.5.4 4.8 1.2s2.2 1.9 2.9 3.3c.6 1.4 1 2.9 1 4.5 0 1.8-.4 3.4-1.1 4.8s-1.7 2.4-3 3.2c-1.3.7-2.8 1.1-4.6 1.1zm13-9.1c0-1.4-.3-2.7-.8-3.8s-1.3-2-2.3-2.6-2.3-1-3.7-1h-4.3v14.9h4.3c1.5 0 2.7-.3 3.8-1 1-.7 1.8-1.6 2.3-2.7s.7-2.4.7-3.8z"/><path d="m488.1 18.5v-18.1h7.6c.8 0 1.5.2 2.1.5s1.2.8 1.7 1.3.9 1.2 1.1 1.8.4 1.4.4 2c0 .9-.2 1.7-.5 2.4-.3.8-.8 1.4-1.4 1.9s-1.3.9-2.1 1l4.4 7h-2l-4.2-6.7h-5.3v6.7h-1.8zm1.7-8.3h5.9c.7 0 1.3-.2 1.9-.6.5-.4.9-.9 1.2-1.5s.4-1.3.4-2-.2-1.4-.5-2-.7-1.1-1.3-1.5-1.2-.6-1.8-.6h-5.7v8.2z"/><path d="m504 .4 5.9 9.7 6-9.7h1.9l-7 11.3v6.7h-1.8v-6.8l-7-11.3h2z"/><path d="m468.7 32.9c0-1.1.2-2.2.6-3.2.4-1.1.9-2 1.7-2.9.7-.9 1.6-1.6 2.7-2.1s2.3-.8 3.6-.8c1.6 0 3 .4 4.1 1.1s2 1.7 2.5 2.8l-1.4.9c-.4-.8-.9-1.4-1.5-1.9s-1.2-.8-1.9-1-1.3-.3-2-.3c-1.1 0-2 .2-2.9.6-.8.4-1.5 1-2.1 1.7s-1 1.5-1.3 2.4-.4 1.8-.4 2.7c0 1 .2 2 .5 2.9s.8 1.7 1.4 2.4 1.3 1.3 2.1 1.7 1.7.6 2.7.6c.7 0 1.4-.1 2.1-.4.7-.2 1.4-.6 2-1.1s1.1-1.1 1.5-1.9l1.5.8c-.4.9-.9 1.7-1.7 2.3s-1.6 1.1-2.6 1.4-1.9.5-2.8.5c-1.2 0-2.4-.3-3.4-.8s-1.9-1.2-2.7-2.1-1.3-1.9-1.7-3c-.4-1-.6-2.1-.6-3.3z"/><path d="m487.3 42.1v-18h1.8v16.5h10.4v1.6h-12.2z"/><path d="m514.3 40.5v1.6h-12.1v-18h11.9v1.6h-10.1v6.5h8.8v1.5h-8.8v6.9h10.3z"/><path d="m523.3 24.1h1.5l7.5 18.1h-1.9l-2.3-5.6h-8.3l-2.3 5.6h-1.9zm4.3 11-3.6-8.9-3.6 8.9z"/><path d="m536.6 27.3v14.8h-1.8v-18h1.5l11.9 15.1v-15h1.8v18h-1.7z"/><path d="m554.5 42.1v-18h1.8v18.1h-1.8z"/><path d="m562.6 27.3v14.8h-1.8v-18h1.5l11.9 15.1v-15h1.8v18h-1.7z"/><path d="m587.7 42.2c-1.2 0-2.3-.3-3.4-.8-1-.5-1.9-1.2-2.7-2.1s-1.4-1.9-1.8-3-.6-2.2-.6-3.4.2-2.4.6-3.5 1-2.1 1.7-2.9 1.6-1.5 2.6-2 2.1-.7 3.3-.7c1.8 0 3.2.4 4.4 1.1 1.1.7 2 1.7 2.5 2.8l-1.4.9c-.6-1.1-1.3-1.9-2.3-2.5-1-.5-2-.8-3.2-.8-1 0-1.9.2-2.7.6s-1.5 1-2.1 1.7-1 1.5-1.3 2.4-.4 1.8-.4 2.8.2 2 .5 2.9.8 1.7 1.4 2.4 1.4 1.3 2.2 1.7 1.7.6 2.7.6c1.1 0 2.1-.3 3.1-.8 1-.6 1.9-1.4 2.8-2.6v1.9c-1.5 2.3-3.6 3.3-5.9 3.3zm5.8-7.6h-4v-1.4h5.5v8.9h-1.5z"/><path d="m469.9 65.7v-18h6.1c1.9 0 3.5.4 4.8 1.2s2.2 1.9 2.9 3.3c.6 1.4 1 2.9 1 4.5 0 1.8-.4 3.4-1.1 4.8s-1.7 2.4-3 3.2c-1.3.7-2.8 1.1-4.6 1.1h-6.1zm13-9c0-1.4-.3-2.7-.8-3.8s-1.3-2-2.3-2.6-2.3-1-3.7-1h-4.3v14.9h4.3c1.5 0 2.7-.3 3.8-1 1-.7 1.8-1.6 2.3-2.7s.7-2.4.7-3.8z"/><path d="m488.1 65.7v-18h1.8v18.1h-1.8z"/><path d="m494.3 47.7 6.5 15.9 6.4-15.9h1.9l-7.5 18.1h-1.6l-7.5-18.1z"/><path d="m511.6 65.7v-18h1.8v18.1h-1.8z"/><path d="m528.5 51.1c-.3-.3-.6-.5-.9-.8-.3-.2-.7-.4-1.1-.6s-.9-.3-1.4-.4-1-.2-1.5-.2c-1.6 0-2.7.3-3.5.9-.7.6-1.1 1.4-1.1 2.5 0 .7.2 1.3.5 1.7s.9.7 1.6 1 1.7.5 2.8.8c1.3.3 2.4.6 3.3 1s1.7.9 2.2 1.5.8 1.5.8 2.6c0 .8-.2 1.5-.5 2.2-.3.6-.8 1.1-1.3 1.5-.6.4-1.3.7-2.1.9s-1.7.3-2.6.3-1.8-.1-2.7-.3-1.7-.5-2.4-.9c-.8-.4-1.5-.9-2.1-1.5l.9-1.4c.3.3.7.7 1.2 1 .4.3.9.6 1.5.8.5.2 1.1.4 1.8.5s1.3.2 2 .2c1.4 0 2.6-.3 3.4-.8s1.2-1.3 1.2-2.3c0-.7-.2-1.3-.6-1.8-.4-.4-1-.8-1.8-1.1s-1.8-.6-3-.8c-1.3-.3-2.3-.6-3.2-1s-1.5-.8-1.9-1.4-.6-1.4-.6-2.3c0-1.1.3-2.1.8-2.8.6-.8 1.3-1.4 2.3-1.8s2.1-.6 3.3-.6c.8 0 1.5.1 2.2.2.7.2 1.3.4 1.9.7s1.1.7 1.6 1.1z"/><path d="m533.4 65.7v-18h1.8v18.1h-1.8z"/><path d="m547 65.9c-1.3 0-2.4-.3-3.5-.8-1-.5-1.9-1.2-2.7-2.1-.7-.9-1.3-1.9-1.7-3s-.6-2.2-.6-3.4.2-2.4.6-3.4c.4-1.1 1-2.1 1.8-2.9.8-.9 1.7-1.5 2.7-2s2.2-.8 3.4-.8c1.3 0 2.4.3 3.5.8 1 .5 1.9 1.2 2.7 2.1.7.9 1.3 1.9 1.7 3s.6 2.2.6 3.3c0 1.2-.2 2.4-.6 3.4-.4 1.1-1 2.1-1.8 2.9-.8.9-1.7 1.5-2.7 2-1.1.6-2.2.9-3.4.9zm-6.7-9.2c0 1 .2 1.9.5 2.8s.8 1.7 1.4 2.4 1.3 1.3 2.1 1.7 1.7.6 2.7.6 2-.2 2.8-.6 1.5-1 2.1-1.7 1-1.5 1.3-2.4.5-1.8.5-2.7c0-1-.2-1.9-.5-2.8s-.8-1.7-1.4-2.4-1.3-1.3-2.1-1.7-1.7-.6-2.7-.6-1.9.2-2.8.6c-.8.4-1.5 1-2.1 1.7s-1 1.5-1.3 2.4-.5 1.8-.5 2.7z"/><path d="m560.6 51v14.8h-1.8v-18.1h1.5l11.9 15.1v-15h1.8v18h-1.7z"/></svg>