<?xml version="1.0" encoding="utf-8"?>
<!-- Generator: Adobe Illustrator 23.0.2, SVG Export Plug-In . SVG Version: 6.00 Build 0)  -->
<svg version="1.1" id="Livello_1" xmlns="http://www.w3.org/2000/svg" xmlns:xlink="http://www.w3.org/1999/xlink" x="0px" y="0px"
	 viewBox="0 0 641 201.9" style="enable-background:new 0 0 641 201.9;" xml:space="preserve">
<style type="text/css">
	.st0{fill:#CD1316;}
	.st1{fill:#24305E;}
</style>
<g>
	<polygon class="st0" points="94.1,95.1 93.6,94.7 93.2,94.4 92.6,94.2 92.1,94 91.5,94 91,94 90.6,94 90,94 89.5,94.2 88.9,94.4 
		88.5,94.7 88,95.1 28.2,151.4 42.2,165.3 44.4,167.5 44.9,167 88.1,126.3 88.6,125.9 89.1,125.6 89.7,125.3 90.2,125.1 90.9,125 
		91,124.9 91.2,125 91.9,125.1 92.4,125.3 93,125.6 93.5,125.9 94,126.3 137.2,167 137.7,167.5 139.9,165.3 153.9,151.4 	"/>
	<path class="st1" d="M88.5,68.5l0.5-0.3l0.5-0.2l0.5-0.1l0.5-0.1H91h0.5l0.5,0.1l0.5,0.1l0.5,0.2l0.5,0.3l0.4,0.3l72.1,67.7
		c7.6-12.9,11.9-27.9,11.9-43.9C178,44.6,139,5.7,91,5.7C43,5.7,4.1,44.6,4.1,92.6c0,16,4.3,31,11.9,43.9l72.1-67.7L88.5,68.5z"/>
	<path class="st1" d="M298.4,157.5V64.7h21.2v9.6c3.8-7.9,10.1-11.8,19.1-11.8c6.5,0,12.3,2.1,17.2,6.4c0,0-9.3,14.1-10.4,15.6
		c-3.4-1.4-5.2-1.3-8.5-1.1c-4.8,0.3-9,1.7-12.3,5.1c-3.4,3.4-5.1,9.1-5.1,17.1v51.9H298.4z"/>
	<path class="st1" d="M388.2,48.2c-2,2.1-4.6,3.1-7.5,3.1c-3,0-5.5-1-7.6-3.1c-2.1-2.1-3.1-4.6-3.1-7.6c0-3,1-5.5,3.1-7.5
		c2.1-2,4.6-3.1,7.6-3.1c3,0,5.5,1,7.5,3.1c2,2,3.1,4.6,3.1,7.5C391.2,43.6,390.2,46.1,388.2,48.2z M369.9,157.5V64.7h21.2v92.8
		H369.9z"/>
	<path class="st1" d="M444.8,193.8l-11.3-17.1c12.7-0.8,21.5-2.8,26.4-5.9c4.9-3.1,7.4-7.8,7.4-14.3v-5.3
		c-5.1,5.6-12.1,8.4-21.1,8.4c-11.4,0-20.6-4.2-27.7-12.6c-7.1-8.4-10.6-20.4-10.6-36c0-15,3.5-26.8,10.6-35.5
		c7.1-8.7,16.4-13,27.9-13c8.7,0,15.7,2.6,20.9,7.8v-5.6h21.2v83.5c0,15.4-3.3,26.5-9.9,33.4C472.1,188.5,460.8,192.6,444.8,193.8z
		 M449.9,139.3c7.6,0,13.4-3,17.4-9.1V91.7c-4.2-6.1-10-9.1-17.4-9.1c-6.7,0-11.8,2.4-15.3,7.3c-3.6,4.8-5.4,11.9-5.4,21.1
		c0,8.7,1.8,15.6,5.4,20.7C438.3,136.8,443.4,139.3,449.9,139.3z"/>
	<path class="st1" d="M604.1,157.5V34.7l21.2-10v132.7H604.1z"/>
	<g>
		<path class="st1" d="M210.8,157.2V30.1h82.1v20.5h-60.3v32.1h38.5l-4.3,20.5h-34.2v54H210.8z"/>
	</g>
	<g>
		<path class="st1" d="M545.3,159.9c-13.2,0-23.7-4.3-31.4-13c-7.7-8.7-11.6-20.6-11.6-35.8c0-15,3.9-26.9,11.6-35.6
			c7.8-8.7,18.2-13,31.3-13c11.9,0,21.6,3.7,29.2,11.1c7.6,7.4,11.4,18.3,11.4,32.6c0,5-0.2,9.3-0.7,13.1h-61.7
			c0.4,6.5,2.6,11.8,6.8,15.8c4.2,4,9.2,6,15,6c8.2,0,14.8-3.2,19.6-9.6l13.5,13.8C570.3,155,559.3,159.9,545.3,159.9z M523.7,101.6
			h41.1c-0.5-6.7-2.5-11.7-6.2-15.2s-8.1-5.2-13.3-5.2c-6.1,0-11.1,1.7-15,5C526.4,89.6,524.2,94.7,523.7,101.6z"/>
	</g>
</g>
</svg>
