<svg xmlns="http://www.w3.org/2000/svg" width="202.791" height="39.265" viewBox="0 0 202.791 39.265"><path d="M125.908,102.96a10.692,10.692,0,0,1,7.127,1.87c8.037,5.307,5.206,17.944-4.145,19.662a10.975,10.975,0,0,1-7.38-1.314,10.812,10.812,0,0,1-.455-18.449,10.331,10.331,0,0,1,4.852-1.769" transform="translate(-99.322 -102.919)" fill="#069"/><path d="M216.4,104.7h15.012v26.739h25.93v11.575h-40.69L216.4,104.7" transform="translate(-148.921 -103.8)" fill="#069"/><path d="M284,104.7h15.922l8.947,19.005,8.9-19.005h16.124l-15.77,38.314h-18.2L284,104.7" transform="translate(-182.351 -103.8)" fill="#069"/><path d="M417.586,131.237s-2.123,2.275-7.026,2.275h-9l-.051-19.157h10.514s8.8.505,8.8,9.907a8.7,8.7,0,0,1-3.235,6.975M416.423,104.7H386.5v38.365h31.743s17.59-.152,17.59-19.713C435.833,123.3,434.721,104.7,416.423,104.7Z" transform="translate(-233.043 -103.8)" fill="#069"/><path d="M178.418,123.2l4.4,4.4-6.268,6.571L172.1,129.72l6.318-6.52" transform="translate(-127.013 -112.949)" fill="#069"/><path d="M134.415,140.3l4.549,4.549-13.142,13.142a10.817,10.817,0,0,1-6.773,2.679,10.093,10.093,0,0,1-6.824-2.982S101.56,145.911,100.6,145.1l4.3-4.6,12.384,13.142a2.282,2.282,0,0,0,1.769.708,2.723,2.723,0,0,0,1.971-.758L134.415,140.3" transform="translate(-91.654 -121.406)" fill="#069"/><path d="M93.717,129.422l-4.347,4.3L82.9,127.2l4.347-4.4,6.47,6.622" transform="translate(-82.9 -112.751)" fill="#069"/></svg>