<?xml version="1.0" encoding="UTF-8"?>
<!-- Generator: Adobe Illustrator 26.1.0, SVG Export Plug-In . SVG Version: 6.00 Build 0)  -->
<svg xmlns="http://www.w3.org/2000/svg" xmlns:xlink="http://www.w3.org/1999/xlink" version="1.1" id="Ebene_1" x="0px" y="0px" viewBox="0 0 838 337" xml:space="preserve">
<path fill="#5B6770" d="M47.6,324.3c3.5,0,6.2-0.8,8.1-2.5c1.9-1.6,2.8-4,2.8-7c0-2.9-1-5.2-2.9-6.9c-1.9-1.7-4.6-2.6-8-2.6H36.1  v31.2h4.1v-12.2H47.6L47.6,324.3z M40.2,308.7h7.6c2,0,3.7,0.6,4.8,1.7c1.2,1.1,1.8,2.6,1.8,4.5c0,2-0.6,3.5-1.8,4.5  c-1.2,1-2.9,1.6-5.1,1.6h-7.4V308.7L40.2,308.7z M83.6,336.6H88v-0.3l-7.3-13.3c1.9-0.7,3.3-1.8,4.4-3.2c1.1-1.4,1.6-3.1,1.6-5.1  c0-3.1-0.9-5.4-2.8-7c-1.9-1.6-4.6-2.4-8.1-2.4H65.3v31.2h4.1v-12.6h7.3L83.6,336.6L83.6,336.6z M69.5,308.7h6.3  c2.2,0,3.8,0.5,5,1.6c1.2,1,1.7,2.5,1.7,4.4c0,1.8-0.6,3.2-1.8,4.3c-1.2,1.1-2.8,1.6-4.9,1.6h-6.3V308.7L69.5,308.7z M111.6,318.8  H98.1v-10.1h15.5v-3.4H94v31.2h19.8v-3.4H98.1v-11.1h13.5V318.8L111.6,318.8z M139.3,326.7c-0.4,2.6-1.2,4.4-2.4,5.4  c-1.2,1-3,1.6-5.3,1.6c-2.5,0-4.5-1-5.9-3c-1.4-2-2.1-4.7-2.1-8.1v-3c0-3.6,0.7-6.4,2.2-8.3c1.5-1.9,3.6-2.9,6.2-2.9  c2.1,0,3.8,0.6,5,1.7c1.2,1.1,2,2.9,2.3,5.4h4.1c-0.3-3.3-1.5-5.8-3.5-7.7c-2-1.9-4.7-2.8-8-2.8c-2.5,0-4.7,0.6-6.6,1.8  c-1.9,1.2-3.4,2.9-4.4,5.1c-1,2.2-1.6,4.8-1.6,7.7v3c0,4.4,1.1,8,3.3,10.6c2.2,2.6,5.2,4,8.9,4c3.4,0,6.1-0.9,8.2-2.7  c2.1-1.8,3.3-4.3,3.7-7.6H139.3L139.3,326.7z M155,305.3h-4.1v31.2h4.1V305.3L155,305.3z M179.2,325.1c1.1,0.8,1.6,2,1.6,3.6  c0,1.5-0.6,2.7-1.7,3.6c-1.2,0.9-2.8,1.3-5,1.3c-2.3,0-4.2-0.5-5.6-1.6c-1.4-1.1-2.1-2.6-2.1-4.5h-4.1c0,1.8,0.5,3.4,1.5,4.9  c1,1.4,2.4,2.6,4.3,3.4c1.9,0.8,3.9,1.2,6,1.2c3.3,0,5.9-0.8,7.9-2.3s3-3.6,3-6.1c0-1.6-0.4-3-1.1-4.1c-0.7-1.2-1.8-2.2-3.3-3.1  c-1.5-0.9-3.5-1.7-6.1-2.4c-2.6-0.7-4.4-1.5-5.5-2.4c-1.1-0.9-1.6-2-1.6-3.2c0-1.6,0.6-2.8,1.7-3.7c1.1-0.9,2.7-1.3,4.8-1.3  c2.2,0,3.9,0.5,5.1,1.6c1.2,1.1,1.8,2.6,1.8,4.5h4.1c0-1.7-0.5-3.3-1.4-4.8s-2.2-2.6-3.9-3.4c-1.7-0.8-3.6-1.2-5.7-1.2  c-3.1,0-5.7,0.8-7.7,2.4c-2,1.6-2.9,3.6-2.9,6.1c0,2.2,0.8,4,2.4,5.5c1.6,1.5,4.2,2.7,7.7,3.7C176.1,323.5,178.1,324.3,179.2,325.1  L179.2,325.1z M196.1,305.3H192v31.2h4.1V305.3L196.1,305.3z M229.2,320c0-3-0.5-5.7-1.5-8c-1-2.3-2.5-4-4.4-5.3  c-1.9-1.2-4.1-1.8-6.6-1.8c-2.5,0-4.6,0.6-6.6,1.8s-3.4,3-4.4,5.3c-1,2.3-1.6,5-1.6,8v2.3c0,2.9,0.6,5.5,1.6,7.8  c1.1,2.2,2.5,4,4.4,5.2c1.9,1.2,4.1,1.8,6.5,1.8c2.5,0,4.7-0.6,6.6-1.8c1.9-1.2,3.3-2.9,4.4-5.2c1-2.3,1.5-5,1.5-8V320L229.2,320z   M225.2,322.3c0,3.6-0.8,6.4-2.3,8.3c-1.5,1.9-3.5,2.9-6.2,2.9c-2.6,0-4.7-1-6.2-3.1c-1.5-2.1-2.3-4.9-2.3-8.5v-2.3  c0-3.5,0.8-6.3,2.3-8.2c1.5-2,3.5-3,6.1-3c2.7,0,4.8,1,6.2,3c1.5,2,2.2,4.8,2.2,8.5V322.3L225.2,322.3z M261,305.3h-4.1v24.2  l-15.8-24.2H237v31.2h4.1v-24.1l15.7,24.1h4.1V305.3L261,305.3z M297.9,319.4h-13.1v-10.7h15.2v-3.4h-19.4v31.2h4.1v-13.8h13.1  V319.4L297.9,319.4z M311,305.3h-4.1v31.2h4.1V305.3L311,305.3z M344.1,305.3H340v24.2l-15.8-24.2H320v31.2h4.1v-24.1l15.7,24.1h4.1  V305.3L344.1,305.3z M357.3,305.3h-4.1v31.2h4.1V305.3L357.3,305.3z M381.4,325.1c1.1,0.8,1.6,2,1.6,3.6c0,1.5-0.6,2.7-1.7,3.6  c-1.2,0.9-2.8,1.3-5,1.3c-2.3,0-4.2-0.5-5.6-1.6c-1.4-1.1-2.1-2.6-2.1-4.5h-4.1c0,1.8,0.5,3.4,1.5,4.9c1,1.4,2.4,2.6,4.3,3.4  c1.9,0.8,3.9,1.2,6,1.2c3.3,0,5.9-0.8,7.9-2.3s3-3.6,3-6.1c0-1.6-0.4-3-1.1-4.1c-0.7-1.2-1.8-2.2-3.3-3.1c-1.5-0.9-3.5-1.7-6.1-2.4  c-2.6-0.7-4.4-1.5-5.5-2.4c-1.1-0.9-1.6-2-1.6-3.2c0-1.6,0.6-2.8,1.7-3.7c1.1-0.9,2.7-1.3,4.8-1.3c2.2,0,3.9,0.5,5.1,1.6  c1.2,1.1,1.8,2.6,1.8,4.5h4.1c0-1.7-0.5-3.3-1.4-4.8c-0.9-1.5-2.2-2.6-3.9-3.4c-1.7-0.8-3.6-1.2-5.7-1.2c-3.1,0-5.7,0.8-7.7,2.4  c-2,1.6-2.9,3.6-2.9,6.1c0,2.2,0.8,4,2.4,5.5c1.6,1.5,4.2,2.7,7.7,3.7C378.4,323.5,380.4,324.3,381.4,325.1L381.4,325.1z M418,305.3  h-4.1v13.4h-15.7v-13.4H394v31.2h4.1v-14.4h15.7v14.4h4.1V305.3L418,305.3z M431.3,305.3h-4.1v31.2h4.1V305.3L431.3,305.3z   M464.4,305.3h-4.1v24.2l-15.8-24.2h-4.1v31.2h4.1v-24.1l15.7,24.1h4.1V305.3L464.4,305.3z M496.3,321H485v3.4h7.2v7  c-0.8,0.8-1.7,1.4-2.9,1.7c-1.2,0.3-2.5,0.5-4.1,0.5c-2.7,0-4.9-1-6.5-3.1c-1.6-2.1-2.4-4.9-2.4-8.4v-2.6c0-3.7,0.7-6.5,2.2-8.4  c1.4-1.9,3.5-2.9,6.3-2.9c4.1,0,6.6,2.1,7.4,6.2h4.1c-0.4-3.1-1.7-5.4-3.6-7.1c-2-1.7-4.6-2.5-7.9-2.5c-4,0-7.1,1.3-9.3,3.9  c-2.2,2.6-3.3,6.2-3.3,10.9v2.7c0,2.9,0.6,5.5,1.7,7.7c1.1,2.2,2.6,3.9,4.6,5.1c2,1.2,4.2,1.8,6.8,1.8c2.5,0,4.7-0.4,6.6-1.1  c1.9-0.8,3.4-1.9,4.4-3.4V321L496.3,321z M530.6,325.1c1.1,0.8,1.6,2,1.6,3.6c0,1.5-0.6,2.7-1.7,3.6c-1.2,0.9-2.8,1.3-5,1.3  c-2.3,0-4.2-0.5-5.6-1.6c-1.4-1.1-2.1-2.6-2.1-4.5h-4.1c0,1.8,0.5,3.4,1.5,4.9c1,1.4,2.4,2.6,4.3,3.4c1.9,0.8,3.9,1.2,6,1.2  c3.3,0,5.9-0.8,7.9-2.3c2-1.5,3-3.6,3-6.1c0-1.6-0.4-3-1.1-4.1c-0.7-1.2-1.8-2.2-3.3-3.1c-1.5-0.9-3.5-1.7-6.1-2.4  c-2.6-0.7-4.4-1.5-5.5-2.4c-1.1-0.9-1.6-2-1.6-3.2c0-1.6,0.6-2.8,1.7-3.7c1.1-0.9,2.7-1.3,4.8-1.3c2.2,0,3.9,0.5,5.1,1.6  c1.2,1.1,1.8,2.6,1.8,4.5h4.1c0-1.7-0.5-3.3-1.4-4.8c-0.9-1.5-2.2-2.6-3.9-3.4c-1.7-0.8-3.6-1.2-5.7-1.2c-3.1,0-5.7,0.8-7.7,2.4  c-2,1.6-3,3.6-3,6.1c0,2.2,0.8,4,2.4,5.5c1.6,1.5,4.2,2.7,7.7,3.7C527.6,323.5,529.6,324.3,530.6,325.1L530.6,325.1z M567.2,320  c0-3-0.5-5.7-1.5-8c-1-2.3-2.5-4-4.4-5.3c-1.9-1.2-4.1-1.8-6.6-1.8c-2.5,0-4.6,0.6-6.6,1.8s-3.4,3-4.4,5.3c-1,2.3-1.6,5-1.6,8v2.3  c0,2.9,0.6,5.5,1.6,7.8c1.1,2.2,2.5,4,4.4,5.2c1.9,1.2,4.1,1.8,6.5,1.8c2.5,0,4.7-0.6,6.6-1.8c1.9-1.2,3.3-2.9,4.4-5.2  c1-2.3,1.5-5,1.5-8V320L567.2,320z M563.1,322.3c0,3.6-0.8,6.4-2.3,8.3c-1.5,1.9-3.5,2.9-6.2,2.9c-2.6,0-4.7-1-6.2-3.1  c-1.5-2.1-2.3-4.9-2.3-8.5v-2.3c0-3.5,0.8-6.3,2.3-8.2c1.5-2,3.5-3,6.1-3c2.7,0,4.8,1,6.2,3c1.5,2,2.2,4.8,2.2,8.5V322.3  L563.1,322.3z M579.1,305.3H575v31.2h18.9v-3.4h-14.8V305.3L579.1,305.3z M616.8,305.3v21.2c0,2.3-0.6,4-1.9,5.3  c-1.2,1.2-3,1.9-5.4,1.9c-2.3,0-4.1-0.6-5.3-1.9c-1.2-1.3-1.9-3-1.9-5.3v-21.2h-4.1v21.3c0,3.2,1.1,5.8,3.1,7.6  c2,1.8,4.8,2.8,8.2,2.8l1.1,0c3.1-0.2,5.6-1.3,7.5-3.2c1.8-1.9,2.8-4.3,2.8-7.2v-21.2H616.8L616.8,305.3z M650.6,305.3h-24.2v3.4h10  v27.9h4.1v-27.9h10V305.3L650.6,305.3z M661.2,305.3h-4.1v31.2h4.1V305.3L661.2,305.3z M694.3,320c0-3-0.5-5.7-1.5-8  c-1-2.3-2.5-4-4.4-5.3c-1.9-1.2-4.1-1.8-6.6-1.8c-2.5,0-4.6,0.6-6.6,1.8c-1.9,1.2-3.4,3-4.4,5.3c-1,2.3-1.6,5-1.6,8v2.3  c0,2.9,0.6,5.5,1.6,7.8c1.1,2.2,2.5,4,4.4,5.2c1.9,1.2,4.1,1.8,6.5,1.8c2.5,0,4.7-0.6,6.6-1.8c1.9-1.2,3.3-2.9,4.4-5.2  c1-2.3,1.5-5,1.5-8V320L694.3,320z M690.2,322.3c0,3.6-0.8,6.4-2.3,8.3c-1.5,1.9-3.5,2.9-6.2,2.9c-2.6,0-4.7-1-6.2-3.1  c-1.5-2.1-2.3-4.9-2.3-8.5v-2.3c0-3.5,0.8-6.3,2.3-8.2c1.5-2,3.5-3,6.1-3c2.7,0,4.8,1,6.2,3c1.5,2,2.2,4.8,2.2,8.5V322.3  L690.2,322.3z M726,305.3h-4.1v24.2l-15.8-24.2H702v31.2h4.1v-24.1l15.7,24.1h4.1V305.3L726,305.3z M749.9,325.1  c1.1,0.8,1.6,2,1.6,3.6c0,1.5-0.6,2.7-1.7,3.6c-1.2,0.9-2.8,1.3-5,1.3c-2.3,0-4.2-0.5-5.6-1.6c-1.4-1.1-2.1-2.6-2.1-4.5H733  c0,1.8,0.5,3.4,1.5,4.9c1,1.4,2.4,2.6,4.3,3.4c1.9,0.8,3.9,1.2,6,1.2c3.3,0,5.9-0.8,7.9-2.3c2-1.5,3-3.6,3-6.1c0-1.6-0.4-3-1.1-4.1  c-0.7-1.2-1.8-2.2-3.3-3.1c-1.5-0.9-3.5-1.7-6.1-2.4c-2.6-0.7-4.4-1.5-5.5-2.4c-1.1-0.9-1.6-2-1.6-3.2c0-1.6,0.6-2.8,1.7-3.7  c1.1-0.9,2.7-1.3,4.8-1.3c2.2,0,3.9,0.5,5.1,1.6c1.2,1.1,1.8,2.6,1.8,4.5h4.1c0-1.7-0.5-3.3-1.4-4.8c-0.9-1.5-2.2-2.6-3.9-3.4  c-1.7-0.8-3.6-1.2-5.7-1.2c-3.1,0-5.7,0.8-7.7,2.4c-2,1.6-2.9,3.6-2.9,6.1c0,2.2,0.8,4,2.4,5.5c1.6,1.5,4.2,2.7,7.7,3.7  C746.9,323.5,748.9,324.3,749.9,325.1L749.9,325.1z"></path>
<polygon fill="#5B6770" points="565.3,256.7 429.6,256.7 429.6,59.4 562.4,59.4 562.4,101.5 476.9,101.5 476.9,133.9 551.7,133.9   551.7,174.2 476.9,174.2 476.9,214.6 565.3,214.6 565.3,256.7 "></polygon>
<polygon fill="#5B6770" points="347.5,256.7 300.1,256.7 300.1,101.5 242.8,101.5 242.8,59.4 404.9,59.4 404.9,101.5 347.5,101.5   347.5,256.7 "></polygon>
<path fill="#005AA6" d="M62.3,102.9l-12.8-9.4c20.6-28,53.7-44.7,88.4-44.7c10,0,19.3,1.3,28.8,4l-4.3,15.3  c-8.2-2.3-16-3.4-24.6-3.4C108.2,64.6,79.9,78.9,62.3,102.9L62.3,102.9z"></path>
<path fill="#5B6770" d="M247.8,158.2c0-48.6-31.6-89.7-75.3-104.2l-6.4,21.1c-8.7-2.6-17.8-4-27-4c-30,0-58.4,14.6-76.2,39l-16.5-12  c-11.3,17.2-17.9,37.9-17.9,60c0,60.6,49.1,109.7,109.7,109.7S247.8,218.8,247.8,158.2L247.8,158.2z M202,158.2  c0,35.3-28.6,63.9-63.9,63.9c-35.3,0-63.9-28.6-63.9-63.9s28.6-63.9,63.9-63.9C173.4,94.3,202,122.9,202,158.2L202,158.2z"></path>
<path fill="#005AA6" d="M26.7,118.2l-15-5.3C21,89.1,33.4,70,52,54.6c18.7-15.5,41.6-25.3,65.5-28.8l2.3,15.7  C98.8,44.6,79,53.4,62.5,67C46.1,80.6,33.6,98.9,26.7,118.2L26.7,118.2z"></path>
<path fill="#005AA6" d="M0,78.4c12.4-21.6,29.6-40.5,51.3-54.1C76.6,8.4,105.8,0,135.9,0c3.7,0,7.4,0.1,11.1,0.4l-1.1,15.8  c-3.3-0.2-6.7-0.3-10-0.3c-27,0-53.3,7.6-76.1,21.9c-19.3,12.1-34,28.2-45.6,47.9L0,78.4L0,78.4z"></path>
<path fill="#5B6770" d="M696,263.8c-64.4,0-111.1-44.2-111.1-105.1c0-29,11-55.7,31-75.1C636.2,64,664.6,53.2,696,53.2  c19.8,0,39.9,4.5,56.5,12.7l1.5,0.7v51.1l-4.2-2.9C734,104,714.5,97.9,696.2,97.9c-17.8,0-33.8,6.1-45,17.2  C640.1,126,634,141.4,634,158.2c0,35.8,26.3,60.9,63.9,60.9c18.7,0,37.7-6.2,54.9-18l4.2-2.9v51.3l-1.4,0.8  C739.2,259,718,263.8,696,263.8L696,263.8z"></path>
<rect fill="none" width="838" height="337"></rect>
</svg>
