<?xml version="1.0" encoding="utf-8"?>
<svg version="1.1" xmlns="http://www.w3.org/2000/svg" viewBox="0 0 800 189.9">
<g id="Artwork" fill="#111111">
	<g>
		<g>
			<path d="M304.1,57.5h11.7V31.9l24,25.5h16.4l-28.6-29.8l26.5-26.2h-17.1l-21.2,22.7V1.5h-11.7L304.1,57.5L304.1,57.5
				z"/>
			<path d="M294.4,1.5h-11.7v56h11.7V1.5z"/>
			<path d="M223.4,1.5l18.5,56h18l18.5-56h-12.5l-15,46.4L235.9,1.5H223.4z"/>
			<path d="M199.3,1.5h-24.7v56h24.6c16.8,0,24.4-10.1,24.4-27.8S216.1,1.5,199.3,1.5z M199.3,48h-13V11h13
				c9,0,12.5,6.2,12.5,18.7S208.3,48,199.3,48z"/>
			<path d="M115.6,57.5h11.5V10.4l21.7,47.1h16.4v-56h-11.5v42.3L134.5,1.5h-18.9V57.5z"/>
			<path d="M3.4,37.4c-0.4,15.5,9.5,21.1,26,21.1c14,0,24.6-5.1,24.6-18.6c0-12.1-9.1-14.4-19.2-15.4l-10.3-0.9
				c-6.2-0.6-8.4-2.4-8.4-7.1c0-5.5,3.9-8.1,12-8.1c7.9,0,13,2.8,13.1,10.8h12.3C53.5,6.2,47.4,0,27.9,0C12.2,0,3.5,5.9,3.5,17.3
				c0,10.6,7.2,14.4,17.1,15.4L32,33.8c8.1,0.8,9.7,3,9.7,7.1c0,6.8-3.9,8.8-12.3,8.8c-11.4,0-13.2-5.7-13.1-12.4L3.4,37.4z"/>
			<path d="M92.7,1.5h-19l-19.1,56h12.1l4.4-12.9h24.4l4.4,12.9h12.1L92.7,1.5z M74.4,34.8L83.3,9l8.8,25.8H74.4z"/>
		</g>
		<g>
			<path d="M155.2,86.4h-29.3c-19,0-34.5,15.4-34.5,34.5v34.5c0,19,15.4,34.5,34.5,34.5h29.3c19,0,34.5-15.4,34.5-34.5
				v-34.5C189.7,101.9,174.2,86.4,155.2,86.4z M170.7,157.1c0,8.6-6.9,15.5-15.5,15.5h-29.3c-8.6,0-15.5-6.9-15.5-15.5v-37.9
				c0-8.6,6.9-15.5,15.5-15.5h29.3c8.6,0,15.5,6.9,15.5,15.5V157.1z"/>
			<path d="M323.3,86.4H294c-19,0-34.5,15.4-34.5,34.5v34.5c0,19,15.4,34.5,34.5,34.5h29.3c19,0,34.5-15.4,34.5-34.5
				v-34.5C357.8,101.9,342.3,86.4,323.3,86.4z M338.8,157.1c0,8.6-6.9,15.5-15.5,15.5H294c-8.6,0-15.5-6.9-15.5-15.5v-37.9
				c0-8.6,6.9-15.5,15.5-15.5h29.3c8.6,0,15.5,6.9,15.5,15.5V157.1z"/>
			<path d="M205.2,114v75.9h19V114c0-5.7,4.6-10.3,10.3-10.3h17.2V86.4h-19C217.5,86.4,205.2,98.8,205.2,114z"/>
			<path d="M490.5,86.4h-25c-7.8,0-14.8,3.2-19.8,8.4c-5-5.2-12-8.4-19.8-8.4h-25c-15.2,0-27.6,12.4-27.6,27.6v75.9h19
				V114c0-5.7,4.6-10.3,10.3-10.3h23.3c5.7,0,10.3,4.6,10.3,10.3v75.9h19V114c0-5.7,4.6-10.3,10.3-10.3h23.3
				c5.7,0,10.3,4.6,10.3,10.3v75.9h19V114C518.1,98.8,505.8,86.4,490.5,86.4z"/>
			<path d="M800,103.7V86.4h-27.6V65.7h-19v96.6c0,15.2,12.4,27.6,27.6,27.6h19v-17.2h-17.2c-5.7,0-10.3-4.6-10.3-10.3
				v-58.6H800z"/>
			<path d="M703.4,86.4h-21.6c-19,0-34.5,15.4-34.5,34.5v69h19v-70.7c0-8.6,6.9-15.5,15.5-15.5h21.6
				c8.6,0,15.5,6.9,15.5,15.5v70.7h19v-69C737.9,101.9,722.5,86.4,703.4,86.4z"/>
			<path d="M597.4,86.4h-29.3c-19,0-34.5,15.4-34.5,34.5v34.5c0,19,15.4,34.5,34.5,34.5h21.6c9.5,0,17.2-7.7,17.2-17.2
				h-38.8c-8.6,0-15.5-6.9-15.5-15.5v-37.9c0-8.6,6.9-15.5,15.5-15.5h29.3c8.6,0,15.5,6.9,15.5,15.5v70.7h19v-69
				C631.9,101.9,616.5,86.4,597.4,86.4z"/>
			<path d="M0,120.9v34.5c0,19,15.4,34.5,34.5,34.5H81v-17.2H34.5c-8.6,0-15.5-6.9-15.5-15.5v-37.9
				c0-8.6,6.9-15.5,15.5-15.5H81V86.4H34.5C15.4,86.4,0,101.9,0,120.9z"/>
		</g>
	</g>
</g>
</svg>
