<?xml version="1.0" encoding="UTF-8"?>
<svg xmlns="http://www.w3.org/2000/svg" viewBox="0 0 150 46">
  <g fill-rule="evenodd" transform="translate(0 .582)" fill="#0C3B63">
    <path d="M0 26.3888608C1.59777215 27.5353671 3.12392405 28.1211392 4.50334177 28.1211392 5.56832911 28.1211392 6.15060759 27.6128101 6.15060759 26.924557 6.15060759 25.038557 0 24.7841013 0 19.6885823 0 17.4963038 1.45278481 14.4643797 5.83559494 14.4643797 7.79670886 14.4643797 9.39389873 15.0251139 11.0405823 16.3247595L11.0405823 20.9113671C9.44281013 19.3566835 8.15888608 18.6428101 6.92503797 18.6428101 5.95612658 18.6428101 5.32668354 19.1022278 5.32668354 19.840557 5.32668354 21.9559747 11.694481 22.1853924 11.694481 27.1283544 11.694481 29.6251646 10.0233418 32.3007342 5.71389873 32.3007342 3.58334177 32.3007342 1.67113924 31.9181772 0 31.1035696L0 26.3888608zM29.0603544 30.7716709C27.3408861 31.7912405 25.1858734 32.3001519 22.9109114 32.3001519 16.0097468 32.3001519 13.6375443 27.4334684 13.6375443 23.4588354 13.6375443 18.3883544 17.1481013 14.4637975 23.2008861 14.4637975 25.3797722 14.4637975 27.3164304 14.8719747 28.9147848 15.6365063L28.9147848 20.7075696C27.2442278 19.5861013 25.7920253 19.1028101 24.1208861 19.1028101 21.2153165 19.1028101 19.4230633 20.7331899 19.4230633 23.3837215 19.4230633 25.9830127 21.2630633 27.6646329 24.1692152 27.6646329 25.8397722 27.6646329 27.1947342 27.2308354 29.0597722 26.1344051L29.0597722 30.7716709 29.0603544 30.7716709z"/>
    <polygon points="31.538 14.694 37.325 14.694 37.325 21.013 43.692 21.013 43.692 14.694 49.479 14.694 49.479 32.071 43.692 32.071 43.692 25.497 37.325 25.497 37.325 32.071 31.538 32.071"/>
    <path d="M69.5851899,24.0958481 C69.5851899,29.1925316 66.5835443,32.3001519 60.8457722,32.3001519 C55.1062532,32.3001519 51.8862532,29.4720253 51.8862532,24.7328608 L51.8862532,14.6937975 L57.6729367,14.6937975 L57.6729367,23.9683291 C57.6729367,26.4156456 58.9085316,27.5866076 60.699038,27.5866076 C62.4662532,27.5866076 63.7985063,26.4156456 63.7985063,23.6632152 L63.7985063,14.6937975 L69.5851899,14.6937975 C69.5851899,14.6937975 69.5851899,24.0958481 69.5851899,24.0958481"/>
    <polygon points="72.145 14.694 77.084 14.694 85.437 23.611 85.437 14.694 90.98 14.694 90.98 32.071 86.042 32.071 77.689 23.153 77.69 32.071 72.145 32.071"/>
    <polygon points="93.576 14.694 99.362 14.694 99.362 22.567 105.971 14.694 112.048 14.694 105.317 22.771 112.291 32.071 105.391 32.071 99.41 23.943 99.362 23.943 99.362 32.071 93.576 32.071"/>
  </g>
  <g fill-rule="evenodd" transform="translate(0 .582)" fill="#1BA4E0">
    <path d="M126.637418,24.2978987 C126.416152,23.6288608 126.299696,22.9318734 126.299696,22.2209114 C126.299696,18.5938987 129.247772,15.6429114 132.871873,15.6429114 C134.899949,15.6429114 136.82438,16.6001772 138.067544,18.2031899 L149.436532,12.1410886 L149.439443,0 L137.732734,6.19427848 C136.141949,5.71098734 134.505165,5.46643038 132.864886,5.46643038 C123.60957,5.46643038 116.079544,13.0005316 116.079544,22.2616709 C116.079544,24.6618228 116.57681,26.9752152 117.551544,29.143038 L126.637418,24.2978987 Z"/>
    <path d="M132.848582,17.8439241 C130.41757,17.8439241 128.440152,19.8213418 128.440152,22.2523544 C128.440152,24.6822025 130.41757,26.659038 132.848582,26.659038 C135.27843,26.659038 137.255266,24.6822025 137.255266,22.2523544 C137.255266,19.8213418 135.27843,17.8439241 132.848582,17.8439241"/>
    <path d="M139.115063,20.1485823 C139.331671,20.8094684 139.445797,21.4988861 139.445797,22.203443 C139.445797,25.8298734 136.497139,28.7796962 132.872456,28.7796962 C130.851367,28.7796962 128.932177,27.83 127.692506,26.2397975 L116.324101,32.3018987 L116.322937,44.4616203 L128.029063,38.2661772 C129.62043,38.7483038 131.257797,38.993443 132.896911,38.993443 C142.152228,38.993443 149.682835,31.4587595 149.682835,22.1982025 C149.682835,19.794557 149.183823,17.4759241 148.203266,15.303443 L139.115063,20.1485823 Z"/>
  </g>
</svg>
