<?xml version="1.0" encoding="UTF-8"?>
<svg width="219px" height="22px" viewBox="0 0 219 22" version="1.1" xmlns="http://www.w3.org/2000/svg" xmlns:xlink="http://www.w3.org/1999/xlink">
    <title>Group 23</title>
    <defs>
        <polygon id="path-1" points="0 0 43 0 43 22 0 22"></polygon>
    </defs>
    <g id="Page-1" stroke="none" stroke-width="1" fill="none" fill-rule="evenodd">
        <g id="00b-index-header-hover" transform="translate(-70.000000, -68.000000)">
            <g id="Group-23" transform="translate(70.000000, 68.000000)">
                <g id="Group-3">
                    <mask id="mask-2" fill="white">
                        <use xlink:href="#path-1"></use>
                    </mask>
                    <g id="Clip-2"></g>
                    <path d="M39.4904341,10.984984 L35.6465093,10.984984 C32.4496532,10.984984 32.178638,7.6912891 32.178638,7.6912891 L32.178638,3.3092428 C32.178638,1.48932292 30.7201275,0 28.9360782,0 L24.6431342,0 L18.1580145,0 L14.0206236,0 L10.7002872,0 L7.37995077,0 L3.5095659,0 C1.72631834,0 0,1.48932292 0,3.3092428 L0,7.6912891 C0,9.51120898 1.72631834,10.9997136 3.5095659,10.9997136 L7.37995077,10.9997136 C9.16319833,10.9997136 10.6217088,12.4890365 10.6217088,14.3089564 L10.6217088,18.4070494 C10.6217088,20.2269692 12.0810211,22.0002455 13.8642687,22.0002455 L18.1580145,22.0002455 C19.941262,22.0002455 21.4005743,20.2376073 21.4005743,18.6910027 L21.4005743,14.3089564 C21.4005743,12.4890365 23.1036399,10.9997136 24.6431342,10.9997136 L28.6594503,10.9997136 C32.1361416,10.9997136 32.2211345,14.6771956 32.2211345,14.6771956 L32.2211345,18.4070494 C32.2211345,20.2646115 33.6804468,21.9879709 35.4636943,21.9879709 L39.7574401,21.9879709 C41.5406877,21.9879709 43,20.1287721 43,18.4070494 L43,14.4685267 C43,12.6486068 41.4476766,10.984984 39.4904341,10.984984" id="Fill-1" fill="#EF4B52" mask="url(#mask-2)"></path>
                </g>
                <polygon id="Fill-4" fill="#00303C" points="59.8469646 5.62040117 59.8469646 19 56.1291291 19 56.1291291 5.62040117 51 5.62040117 51 2 65 2 65 5.62040117"></polygon>
                <polygon id="Fill-5" fill="#00303C" points="67 19 67 2 76.9781999 2 76.9781999 5.57299413 70.5113672 5.57299413 70.5113672 8.80914873 76.3779197 8.80914873 76.3779197 12.1426125 70.5113672 12.1426125 70.5113672 15.4037182 77 15.4037182 77 19"></polygon>
                <path d="M80,10.5347102 C80,5.45106782 83.8125528,2 88.3057198,2 C93.1399891,2 95.2732694,5.15184229 95.7956567,7.49856841 L92.4140536,8.57897207 C92.164389,7.4522882 91.1434677,5.54283032 88.3057198,5.54283032 C86.1501764,5.54283032 83.7219103,7.10678245 83.7219103,10.5347102 C83.7219103,13.593992 85.9458331,15.3654072 88.3518362,15.3654072 C91.1434677,15.3654072 92.2550316,13.4790894 92.5730756,12.3061253 L96,13.2947665 C95.4776127,15.5497301 93.3443324,19 88.3518362,19 C83.7219103,19 80,15.6183525 80,10.5347102" id="Fill-6" fill="#00303C"></path>
                <polygon id="Fill-8" fill="#00303C" points="108.204402 19 101.568674 7.82690802 101.568674 19 98 19 98 2 102.364102 2 108.409031 12.3339041 108.409031 2 112 2 112 19"></polygon>
                <g id="Group-19" transform="translate(115.000000, 2.000000)" fill="#00303C">
                    <path d="M8.57483447,0 C13.1988789,0 17.1260603,3.33536728 17.1260603,8.51157005 C17.1260603,13.6646327 13.1988789,17 8.57483447,17 C3.92718138,17 0,13.6646327 0,8.51157005 C0,3.33536728 3.92718138,0 8.57483447,0 M8.57483447,13.4108895 C10.8518507,13.4108895 13.31448,11.8932176 13.31448,8.48842995 C13.31448,5.08444027 10.8518507,3.54283032 8.57483447,3.54283032 C6.27420956,3.54283032 3.81158027,5.08444027 3.81158027,8.48842995 C3.81158027,11.8932176 6.27420956,13.4108895 8.57483447,13.4108895" id="Fill-9"></path>
                    <path d="M24.8401549,10.5819714 L23.5384213,10.5819714 L23.5384213,16.6550528 L19.8668649,16.6550528 L19.8668649,0.345266369 L26.3966994,0.345266369 C29.6498124,0.345266369 31.7412156,2.55394978 31.7412156,5.45204881 C31.7412156,7.66073222 30.5094939,9.33958695 28.4881026,10.0529406 L31.8340221,16.6550528 L27.7912396,16.6550528 L24.8401549,10.5819714 Z M25.6998364,7.45326919 C27.2099777,7.45326919 28.0232559,6.62501291 28.0232559,5.47518892 C28.0232559,4.25594461 27.2099777,3.49631073 25.6998364,3.49631073 L23.5384213,3.49631073 L23.5384213,7.45326919 L25.6998364,7.45326919 Z" id="Fill-11"></path>
                    <path d="M42.0817349,0 C46.7057793,0 50.6329607,3.33536728 50.6329607,8.51157005 C50.6329607,13.6646327 46.7057793,17 42.0817349,17 C37.4340818,17 33.5077145,13.6646327 33.5077145,8.51157005 C33.5077145,3.33536728 37.4340818,0 42.0817349,0 M42.0817349,13.4108895 C44.3587511,13.4108895 46.8221945,11.8932176 46.8221945,8.48842995 C46.8221945,5.08444027 44.3587511,3.54283032 42.0817349,3.54283032 C39.78111,3.54283032 37.3176666,5.08444027 37.3176666,8.48842995 C37.3176666,11.8932176 39.78111,13.4108895 42.0817349,13.4108895" id="Fill-13"></path>
                    <path d="M59.5318853,0.345346163 C62.7849982,0.345346163 64.6671797,2.20852382 64.6671797,4.71563483 C64.6671797,6.39528749 63.5982765,7.77571462 62.2509537,8.21218493 C63.7383003,8.55769068 65.1784297,9.9149777 65.1784297,12.0311007 C65.1784297,14.6993945 63.1334297,16.6551326 60.0203407,16.6551326 L53.3740909,16.6551326 L53.3740909,0.345346163 L59.5318853,0.345346163 Z M58.9514375,6.87803802 C60.2287483,6.87803802 61.0656352,6.21096456 61.0656352,5.10742079 C61.0656352,4.04856137 60.3459776,3.35834781 58.9042201,3.35834781 L56.9528408,3.35834781 L56.9528408,6.87803802 L58.9514375,6.87803802 Z M59.2534657,13.6876132 C60.6708004,13.6876132 61.5304819,12.9511195 61.5304819,11.7781554 C61.5304819,10.6514715 60.693595,9.86869749 59.2534657,9.86869749 L56.9528408,9.86869749 L56.9528408,13.6876132 L59.2534657,13.6876132 Z" id="Fill-15"></path>
                    <path d="M75.4487742,0 C80.0728186,0 84,3.33536728 84,8.51157005 C84,13.6646327 80.0728186,17 75.4487742,17 C70.8011211,17 66.8739397,13.6646327 66.8739397,8.51157005 C66.8739397,3.33536728 70.8011211,0 75.4487742,0 M75.4487742,13.4108895 C77.7257904,13.4108895 80.1892338,11.8932176 80.1892338,8.48842995 C80.1892338,5.08444027 77.7257904,3.54283032 75.4487742,3.54283032 C73.1481493,3.54283032 70.68552,5.08444027 70.68552,8.48842995 C70.68552,11.8932176 73.1481493,13.4108895 75.4487742,13.4108895" id="Fill-17"></path>
                </g>
                <polygon id="Fill-20" fill="#00303C" points="208.846965 5.62040117 208.846965 19 205.129129 19 205.129129 5.62040117 200 5.62040117 200 2 214 2 214 5.62040117"></polygon>
                <path d="M214,15.4996156 C214,14.0848839 215.091794,13 216.511977,13 C217.931386,13 219,14.0725819 219,15.4996156 C219,16.9266492 217.931386,18 216.511977,18 C215.079431,18 214,16.9151161 214,15.4996156 L214,15.4996156 Z M218.530212,15.4996156 C218.530212,14.3201599 217.673312,13.4474858 216.511977,13.4474858 C215.338278,13.4474858 214.481378,14.3201599 214.481378,15.4996156 C214.481378,16.6790712 215.338278,17.5517453 216.511977,17.5517453 C217.673312,17.5517453 218.530212,16.6790712 218.530212,15.4996156 L218.530212,15.4996156 Z M215.502086,16.8674458 L215.502086,14.0487467 L216.628651,14.0487467 C217.251429,14.0487467 217.661722,14.3670614 217.661722,14.9098877 C217.661722,15.2751038 217.462371,15.5941873 217.098439,15.7356605 L217.708855,16.8674458 L217.180343,16.8674458 L216.652604,15.8532985 L215.983465,15.8532985 L215.983465,16.8674458 L215.502086,16.8674458 Z M216.617061,14.5093034 L215.983465,14.5093034 L215.983465,15.4173458 L216.617061,15.4173458 C216.957812,15.4173458 217.157163,15.2405044 217.157163,14.945256 C217.157163,14.6507766 216.969402,14.5093034 216.617061,14.5093034 L216.617061,14.5093034 Z" id="Fill-21" fill="#00303C"></path>
            </g>
        </g>
    </g>
</svg>